<svg xmlns="http://www.w3.org/2000/svg" viewBox="0 0 160 140" role="img" aria-label="Cofre futurista"><defs><linearGradient id="metal" x1="0" y1="0" x2="1" y2="1"><stop stop-color="#c8faff"/><stop offset=".35" stop-color="#547f9f"/><stop offset="1" stop-color="#202b4d"/></linearGradient><linearGradient id="lid" x1="0" y1="0" x2="1" y2="1"><stop stop-color="#5af2ed"/><stop offset=".5" stop-color="#4570b8"/><stop offset="1" stop-color="#252d58"/></linearGradient></defs><ellipse cx="80" cy="127" rx="57" ry="8" fill="#000" opacity=".35"/><path d="M23 54V40l18-20h78l18 20v14Z" fill="url(#lid)" stroke="#17243e" stroke-width="5" stroke-linejoin="round"/><path d="M42 26h76m-89 18h102" stroke="#8bffff" stroke-width="3" stroke-linecap="round" opacity=".85"/><path d="M16 52h128v56c0 7-6 12-13 12H29c-7 0-13-5-13-12Z" fill="url(#metal)" stroke="#17243e" stroke-width="5" stroke-linejoin="round"/><path d="M30 61h100v42H30Z" fill="#1b2b4b" stroke="#4ee5ee" stroke-width="2"/><path d="M25 53h110v13H25Zm0 43h110v13H25Z" fill="#263a63" stroke="#17243e" stroke-width="4"/><path d="M38 61v42m84-42v42" stroke="#5df9ed" stroke-width="3" opacity=".8"/><rect x="57" y="64" width="46" height="37" rx="6" fill="#1c2d52" stroke="#75ffff" stroke-width="3"/><path d="m80 69 13 13-13 14-13-14Z" fill="#63f8ee" stroke="#d9ffff" stroke-width="2"/><circle cx="80" cy="82" r="5" fill="#fff"/><path d="M34 34h11m70 0h11" stroke="#b7ffff" stroke-width="4" stroke-linecap="round"/><circle cx="39" cy="80" r="3" fill="#b7ffff"/><circle cx="121" cy="80" r="3" fill="#b7ffff"/><path d="m26 111 9 4m90-4-9 4" stroke="#7dfff3" stroke-width="3" stroke-linecap="round"/></svg>