<svg xmlns="http://www.w3.org/2000/svg" viewBox="0 0 120 120"><defs><linearGradient id="g" x2="1" y2="1"><stop stop-color="#9afcff"/><stop offset="1" stop-color="#0891b2"/></linearGradient></defs><circle cx="60" cy="60" r="48" fill="none" stroke="#155e75" stroke-width="1.5" stroke-dasharray="3 5"/><path d="M60 8 72 26 95 25 91 48 108 62 88 76 83 98 60 91 37 98 32 76 12 62 29 48 25 25 48 26z" fill="#101820" stroke="#3be4ed" stroke-width="2.5" stroke-linejoin="round"/><path d="M60 22 82 36 78 65 60 82 42 65 38 36z" fill="#050c12" stroke="#155e75" stroke-width="2"/><path d="M41 46l14-4-2 9-13 5zm38 0-14-4 2 9 13 5z" fill="url(#g)"/><path d="M47 67h26M60 82v8" stroke="#3be4ed" stroke-width="3" stroke-linecap="round"/><circle cx="60" cy="59" r="4" fill="#d1ffff"/></svg>